HIERARCHY
ROOT Hips
{
  OFFSET 196.326 95.9168 97.7182
  CHANNELS 6 Xposition Yposition Zposition Zrotation Xrotation Yrotation
  JOINT LeftUpLeg
  {
    OFFSET 8.64259 1.95398 -2.38835
    CHANNELS 3 Zrotation Xrotation Yrotation
    JOINT LeftLeg
    {
      OFFSET 43.7702 0 0
      CHANNELS 3 Zrotation Xrotation Yrotation
      JOINT LeftFoot
      {
        OFFSET 40.6238 0 0
        CHANNELS 3 Zrotation Xrotation Yrotation
        JOINT LeftToeBase
        {
          OFFSET 12.7242 0 0
          CHANNELS 3 Zrotation Xrotation Yrotation
          End Site
          {
            OFFSET 0 0 0
          }
        }
      }
    }
  }
  JOINT RightUpLeg
  {
    OFFSET -8.2249 1.95398 -2.59336
    CHANNELS 3 Zrotation Xrotation Yrotation
    JOINT RightLeg
    {
      OFFSET 43.5653 0 0
      CHANNELS 3 Zrotation Xrotation Yrotation
      JOINT RightFoot
      {
        OFFSET 40.6238 0 0
        CHANNELS 3 Zrotation Xrotation Yrotation
        JOINT RightToeBase
        {
          OFFSET 12.7242 0 0
          CHANNELS 3 Zrotation Xrotation Yrotation
          End Site
          {
            OFFSET 0 0 0
          }
        }
      }
    }
  }
  JOINT Spine
  {
    OFFSET 0.165834 0.87714 6.61349
    CHANNELS 3 Zrotation Xrotation Yrotation
    JOINT Spine1
    {
      OFFSET 7.38963 1.71661e-005 0
      CHANNELS 3 Zrotation Xrotation Yrotation
      JOINT Spine2
      {
        OFFSET 11.9445 1.14441e-005 0
        CHANNELS 3 Zrotation Xrotation Yrotation
        JOINT Spine3
        {
          OFFSET 14.7254 4.19617e-005 0
          CHANNELS 3 Zrotation Xrotation Yrotation
          JOINT Spine4
          {
            OFFSET 10.9679 0 0
            CHANNELS 3 Zrotation Xrotation Yrotation
            JOINT RightShoulder
            {
              OFFSET 2.46616 -1.6653 3.69651
              CHANNELS 3 Zrotation Xrotation Yrotation
              JOINT RightArm
              {
                OFFSET 13.0012 0 0
                CHANNELS 3 Zrotation Xrotation Yrotation
                JOINT RightForeArm
                {
                  OFFSET 28.7848 1.52588e-005 0
                  CHANNELS 3 Zrotation Xrotation Yrotation
                  JOINT RightHand
                  {
                    OFFSET 26.5688 1.52588e-005 0
                    CHANNELS 3 Zrotation Xrotation Yrotation
                    End Site
                    {
                      OFFSET 0 0 0
                    }
                  }
                }
              }
            }
            JOINT LeftShoulder
            {
              OFFSET 2.38034 -1.29275 -3.75231
              CHANNELS 3 Zrotation Xrotation Yrotation
              JOINT LeftArm
              {
                OFFSET 16.3182 6.10351e-005 0
                CHANNELS 3 Zrotation Xrotation Yrotation
                JOINT LeftForeArm
                {
                  OFFSET 27.0901 0 0
                  CHANNELS 3 Zrotation Xrotation Yrotation
                  JOINT LeftHand
                  {
                    OFFSET 24.5451 1.52588e-005 0
                    CHANNELS 3 Zrotation Xrotation Yrotation
                    End Site
                    {
                      OFFSET 0 0 0
                    }
                  }
                }
              }
            }
            JOINT Neck
            {
              OFFSET 5.0226 -0.0266342 0
              CHANNELS 3 Zrotation Xrotation Yrotation
              JOINT Head
              {
                OFFSET 6.69363 2.86102e-005 0
                CHANNELS 3 Zrotation Xrotation Yrotation
                End Site
                {
                  OFFSET 0 0 0
                }
              }
            }
          }
        }
      }
    }
  }
}
MOTION
Frames:	17
Frame Time:	0.0416667
-52.1274 92.9277 -192.778 59.9106 -83.7748 58.3102 -173.847 -3.26674 87.9635 -23.9728 25.7694 0.131861 61.0305 10.4061 20.7591 69.3592 29.9376 -27.9105 -178.997 30.3388 88.8151 -12.4626 10.5547 -0.00447292 63.1837 -1.1695 -0.587015 53.7914 3.86599 14.7005 -1.33424 7.3078 -89.9599 12.2642 -2.63267 0.374964 0.595788 -2.61361 0.490536 -21.9604 -2.62357 -0.434155 -1.94776 -2.62357 -0.434172 79.2555 -53.8608 -115.463 29.7392 -8.87827 25.192 -7.39452 -19.4397 -34.1276 -0.69465 -0.258759 3.62188 -100.032 -39.2996 59.5698 -17.426 2.26827 -3.92007 10.011 3.56294 -56.8217 15.2079 1.28007 4.47593 13.2914 3.27401 -2.24212 -4.31991 3.87878 5.64539 
-52.2321 91.9688 -182.968 69.3262 -84.8664 71.3698 -173.319 -4.02154 92.8293 -33.5223 24.2807 1.66938 53.6784 0.193026 9.88623 80.9702 41.0848 -21.9917 179.724 31.8237 93.0361 -27.2898 11.8812 1.29678 59.9271 -0.722589 -0.293086 45.3204 2.42433 16.5236 -1.2687 7.3475 -90.5432 12.1769 -2.77892 -0.775272 0.508872 -2.81035 -0.652139 -22.044 -2.4174 -1.575 -2.0314 -2.41739 -1.575 78.8839 -53.7084 -116.048 28.0741 -8.39875 24.8393 -6.83082 -20.6141 -31.4827 -0.395729 -0.242073 4.23759 -101.087 -40.9678 58.6552 -19.3008 1.30983 -1.3513 9.73607 3.27537 -56.0828 15.4545 1.33959 4.73129 13.1704 4.06452 -0.241344 -5.01254 4.10619 5.8533 
-52.9527 91.6637 -174.325 81.348 -86.9234 84.2644 -172.623 1.70311 95.4553 -46.7874 22.0803 1.00256 38.4819 -11.5206 1.12354 51.3702 24.1074 -2.21749 178.877 30.5091 95.9441 -37.7429 11.9104 1.45992 65.3634 -1.84089 -0.977446 33.8628 -0.050409 19.6796 -0.976263 7.33567 -90.6308 12.1932 -2.23907 -1.00972 0.523881 -2.28134 -0.910179 -22.0193 -1.83211 -1.63607 -2.00667 -1.83212 -1.63609 78.6988 -53.1262 -116.539 27.8994 -8.01208 21.9498 -5.99283 -20.4637 -30.1799 -0.314903 -0.232364 4.29072 -101.786 -41.5143 57.8142 -22.727 3.43719 1.46028 8.68076 4.0741 -51.3122 15.6809 1.43609 5.21782 13.0682 3.88529 0.455849 -6.24276 3.68796 4.33324 
-53.4322 93.206 -165.932 92.78 -87.7301 95.5376 -172.201 11.8727 95.2458 -57.3462 15.4567 0.565769 42.3822 -7.73458 7.83567 53.9887 23.8996 -11.2951 179.168 24.0116 96.8553 -37.4298 11.8862 0.954142 69.1172 -2.7118 -1.42856 29.8083 -1.00607 19.5709 -0.591472 7.33326 -90.5112 12.2037 -1.41765 -0.862592 0.533247 -1.45423 -0.799366 -22.0038 -1.09289 -1.24878 -1.99117 -1.09288 -1.24878 79.6872 -51.4708 -115.768 29.3771 -7.35458 17.5725 -7.55321 -18.3385 -34.7296 -1.05092 -0.265261 4.15593 -102.804 -42.2365 56.5778 -25.1308 6.73341 2.68054 6.46013 5.90614 -42.2554 13.5334 1.00637 3.4853 12.821 2.78486 0.264329 -6.34405 2.66019 4.03861 
-54.204 94.9893 -157.928 126.534 -89.5581 127.071 -171.25 18.8194 92.4337 -52.4446 13.6732 -0.78331 48.3612 -3.51325 8.57918 56.6418 27.8477 -6.71483 -179.779 16.8021 96.1343 -33.5621 11.5312 -0.887214 70.2903 -2.82116 -1.4702 32.5269 -0.39756 20.8757 -0.152235 7.29249 -90.1098 12.2895 -0.354586 -0.179304 0.618594 -0.362135 -0.163524 -21.9166 -0.284312 -0.277584 -1.90397 -0.284305 -0.277577 80.15 -50.2062 -115.588 29.2706 -8.98017 12.5903 -8.72243 -15.2197 -41.3461 -4.32549 -0.449814 3.88818 -102.692 -42.4959 56.8722 -29.1876 7.73986 5.16244 4.83682 8.18599 -33.744 12.7463 0.958063 3.52886 11.6746 2.15811 0.00514644 -5.68118 2.13881 3.70082 
-54.3857 96.0302 -150.443 -85.4267 -87.3808 -85.8189 -170.987 22.1699 90.6237 -35.3462 9.8406 -1.77969 54.5513 1.34446 10.2895 57.38 30.1043 -2.59811 -179.771 10.4788 95.1238 -29.387 7.26542 -1.51991 69.9502 -2.85909 -1.49674 35.9457 0.428092 18.5855 0.324864 7.25063 -89.8972 12.3723 0.694423 0.126267 0.701524 0.699304 0.0955809 -21.8348 0.624368 0.329137 -1.82218 0.624371 0.329145 80.1465 -47.7221 -116.604 27.6871 -9.75123 7.72386 -11.7549 -13.7755 -49.8634 -4.64202 -0.412451 1.81667 -102.427 -43.0173 57.5182 -32.8823 7.17964 9.27622 4.15302 9.38818 -28.6649 9.63935 0.722339 3.32509 11.6404 2.34234 1.08154 -5.61341 2.05087 2.51753 
-53.9706 96.0997 -142.822 -74.8318 -83.9479 -75.0048 -173.08 21.131 91.0939 -8.26257 7.09321 -1.2653 56.2248 3.94146 11.9569 60.63 34.8903 0.743626 179.624 5.14189 94.3648 -25.9535 4.59751 -1.5661 71.2976 -3.53596 -1.80174 37.675 0.856393 19.809 0.714539 7.17908 -89.8612 12.516 1.48571 0.105418 0.8459 1.48891 0.0399052 -21.6954 1.38533 0.547147 -1.68271 1.38533 0.547143 81.5808 -45.705 -115.229 24.1495 -12.1527 0.252744 -14.3548 -12.9041 -55.5396 -5.0023 -0.45287 2.33873 -101.717 -43.9339 59.0136 -35.6503 6.99954 12.9524 3.85726 11.0065 -25.8785 7.05587 0.582058 3.7726 12.5843 3.17242 2.74358 -5.78225 2.4213 1.18864 
-53.3885 95.3422 -134.954 -75.4465 -80.5694 -74.708 -174.094 26.7855 92.5189 -4.44249 4.18871 -0.218884 62.3849 4.91567 11.2884 62.1473 36.4359 0.64375 179.122 0.824417 93.7101 -25.12 0.991143 -2.06931 70.8715 -4.03204 -2.06734 43.4994 2.17447 18.687 1.11703 7.18252 -89.9153 12.5121 2.25958 -0.0918105 0.843135 2.25335 -0.191225 -21.7071 2.18266 0.591869 -1.6944 2.18266 0.591867 82.0729 -43.9562 -115.173 20.4392 -11.2659 -5.4784 -16.5461 -13.697 -59.02 -7.47001 -0.596078 2.6377 -101.071 -44.7189 60.3325 -37.5371 6.86172 15.6642 3.13009 11.2366 -23.7451 7.25716 0.573962 3.48547 13.5144 3.8345 3.86154 -6.05054 2.74897 0.732754 
-52.5955 93.8391 -126.348 -79.5956 -79.0063 -79.4097 -173.356 27.0185 91.5511 -7.03446 5.86622 -1.4204 59.1119 3.0484 9.55087 60.1183 34.1115 0.289521 178.825 -1.60701 91.624 -31.8671 -2.73056 -4.13854 66.8198 -2.84114 -1.54266 55.6337 4.49045 16.1728 1.35181 7.17582 -89.7576 12.5232 2.80101 0.15936 0.855282 2.80531 0.0358235 -21.7017 2.62354 0.994392 -1.6891 2.62353 0.994385 80.9807 -44.5152 -116.666 18.5911 -8.94724 -5.92888 -17.4287 -12.9674 -60.3377 -8.55971 -0.656983 2.64574 -100.051 -44.7545 61.8977 -38.6696 6.2638 17.5618 2.8733 11.8327 -21.8361 7.51268 0.73828 5.2027 12.616 3.64218 3.01373 -6.00298 2.80557 0.942377 
-51.8443 92.634 -116.89 -85.1239 -80.1861 -88.4806 -172.263 26.8683 87.2119 -17.9774 10.2812 -2.97847 54.5495 0.290265 10.9356 54.6958 21.8073 -21.0233 177.388 1.67102 87.5118 -44.0532 -2.25783 -5.61322 52.9882 0.727744 0.820819 55.0871 6.08856 27.272 1.2468 7.17172 -89.2991 12.5216 2.81091 1.07529 0.853386 2.8555 0.950441 -21.6969 2.35776 1.87064 -1.6842 2.35776 1.87065 80.4415 -46.4297 -116.692 18.9789 -8.86252 -2.18812 -16.688 -12.6652 -59.76 -10.2046 -0.817602 3.80984 -99.751 -44.8439 62.3899 -38.4448 6.08108 18.4046 2.7968 13.3739 -20.2244 6.75504 0.681191 5.27423 11.4202 3.20706 2.08958 -6.70955 2.63323 0.786072 
-51.0151 92.4184 -108.556 -93.5493 -82.1467 -98.7823 -171.429 25.1186 83.9535 -27.3594 12.5634 -4.10141 58.0915 3.75522 14.3798 43.0177 11.8782 -30.419 177.969 8.24608 84.9357 -58.7676 3.61677 -6.06942 35.9721 3.22329 3.82009 35.3594 0.327588 15.2607 0.954775 7.26024 -89.1032 12.337 2.32307 1.52757 0.667315 2.38804 1.42381 -21.8712 1.75667 2.15509 -1.85856 1.75667 2.15508 80.0367 -47.2717 -116.955 21.8495 -8.89001 2.44616 -15.0868 -12.9688 -56.2156 -9.32849 -0.67984 2.57457 -99.9123 -44.2011 61.8819 -37.8315 6.21494 16.4555 2.52323 11.7149 -20.3959 7.34459 0.73312 5.29699 11.3727 3.15503 2.31872 -7.02298 2.5285 0.0652651 
-50.1645 93.6349 -101.058 -103.965 -84.5248 -108.482 -172.212 19.7318 83.4107 -27.8782 13.4091 -3.57534 60.7825 6.92896 15.9113 38.638 8.86504 -34.5603 177.538 17.3567 86.1536 -66.6159 13.1858 -4.82614 42.3183 0.223537 0.765524 31.109 -0.578673 17.2328 0.508267 7.33967 -89.2544 12.1862 1.3633 1.33675 0.515324 1.4208 1.27546 -22.0172 0.898589 1.68461 -2.0046 0.898591 1.68462 79.3313 -49.2936 -117.171 22.929 -11.5511 5.70265 -13.8984 -15.9243 -49.8852 -8.61108 -0.617211 1.90866 -100.993 -43.6814 60.0078 -35.6459 6.90937 12.8517 3.08089 10.4267 -23.9018 7.72956 0.678162 4.30889 10.7284 3.21283 1.75559 -7.04045 2.72839 0.806953 
-49.3103 95.2843 -93.5891 -127.45 -87.7399 -130.158 -173.825 13.6629 84.0379 -25.0213 15.1998 -2.12941 61.1106 7.64633 16.3092 42.3519 11.1296 -33.8502 177.104 23.0516 88.6611 -61.4485 13.9544 -3.18277 53.0083 -1.6683 -0.871722 37.5907 0.840443 18.913 0.0736919 7.31288 -89.5592 12.2462 0.355409 0.840538 0.575083 0.39206 0.824079 -21.958 0.0863683 0.908488 -1.94536 0.0863752 0.908491 79.0396 -51.2349 -116.803 24.9686 -12.6119 10.3613 -13.7733 -19.3136 -44.857 -6.22862 -0.501023 1.89456 -101.406 -42.7638 58.971 -32.1882 8.12723 8.43612 4.40237 9.99673 -30.2537 10.5916 0.922364 4.52329 8.60235 2.77835 0.642663 -6.20289 2.59409 2.16938 
-49.1061 96.1757 -86.6525 128.445 -88.8658 126.293 -174.271 8.64229 84.6941 -22.2417 17.3526 -1.5812 61.2253 7.60963 16.1606 45.5259 13.0046 -34.0604 178.034 25.5911 89.4822 -45.6352 15.1723 -1.61787 60.5198 -2.7593 -1.57945 44.0337 1.91056 14.1463 -0.275225 7.29734 -89.7119 12.2799 -0.410325 0.621163 0.608858 -0.382583 0.638614 -21.9261 -0.578037 0.469134 -1.91342 -0.578035 0.469132 78.9717 -52.5712 -116.368 26.7054 -11.5588 14.8507 -10.66 -20.1224 -40.0755 -3.35812 -0.429355 3.79396 -101.07 -41.6215 58.9802 -28.0314 8.73552 3.6706 6.93123 9.63114 -38.7894 13.5045 1.19411 4.81646 8.52544 2.25923 -0.620278 -5.50289 2.383 3.40483 
-49.2238 96.1122 -79.599 81.6648 -86.1592 79.4081 -174.161 4.68767 85.3304 -20.9123 18.4866 -1.23715 63.5438 8.63587 13.5508 48.0719 15.2319 -29.691 179.606 25.1308 88.635 -22.3049 15.6329 -0.676531 62.5491 -2.47835 -1.38136 47.7101 2.63247 14.0013 -0.613795 7.26431 -89.7733 12.3484 -1.11207 0.578756 0.67776 -1.08551 0.62714 -21.861 -1.23459 0.217728 -1.84835 -1.23458 0.217742 78.771 -53.3683 -116.341 28.4899 -9.1517 18.5687 -9.38896 -21.279 -35.1262 -0.728405 -0.304382 1.72064 -100.618 -41.0558 59.4337 -22.1583 9.35636 -1.48865 13.8019 12.9459 -49.2644 13.093 1.36918 6.34915 10.0702 2.19276 -1.28986 -5.27316 2.48708 3.97146 
-49.3083 95.1308 -72.2177 80.5028 -83.5479 77.5513 -174.035 0.489918 85.6515 -20.9009 20.8763 -0.95494 65.0147 11.538 15.8139 51.6016 17.9204 -27.8091 -179.114 24.7286 87.1633 -6.20005 12.8674 -1.13589 63.6855 -1.69466 -0.901388 52.606 3.83106 15.9914 -0.88567 7.24396 -89.7695 12.3915 -1.65036 0.648422 0.721408 -1.62022 0.720438 -21.822 -1.76891 0.122308 -1.80934 -1.76892 0.122297 79.14 -53.9546 -115.59 29.8999 -8.60467 23.5797 -10.224 -20.6498 -36.1774 1.59153 -0.201996 1.98875 -100.349 -40.7161 59.706 -16.8398 8.95818 -5.7649 16.643 11.0367 -56.8377 15.0048 1.65416 7.02399 11.8448 1.95048 -2.16784 -6.01258 2.45755 4.87725 
-49.6614 93.6059 -64.3599 84.5399 -81.7673 81.7963 -174.38 -2.07603 87.069 -25.9519 25.4908 0.231346 63.6766 11.4009 17.7255 60.3296 24.9532 -24.1043 -179.445 26.5138 87.3714 -10.6564 12.6566 -0.706688 63.1531 -1.53244 -0.802247 54.5436 3.83995 13.3792 -1.11844 7.24643 -89.8437 12.3866 -2.14812 0.556996 0.717272 -2.12153 0.651025 -21.8321 -2.21617 -0.114681 -1.81942 -2.21616 -0.114678 78.8009 -54.3251 -115.927 30.1964 -9.01026 25.5098 -10.1568 -22.7111 -34.5079 2.84122 -0.187995 1.72257 -100.279 -40.2851 59.6228 -14.9916 5.95103 -7.66218 16.434 8.28075 -60.2659 15.418 1.5636 6.16463 11.9034 2.11187 -2.1839 -5.26675 2.65255 4.85356 
